<svg version="1.1" id="Layer_1" xmlns="http://www.w3.org/2000/svg" xmlns:xlink="http://www.w3.org/1999/xlink" x="0px" y="0px"
	 width="100%" viewBox="0 0 1024 1024" enable-background="new 0 0 1024 1024" xml:space="preserve">
<path fill="#000000" opacity="1.000000" stroke="none" 
	d="
M588.965698,652.334778 
	C559.232239,647.797485 536.673828,632.577454 519.334045,608.956604 
	C500.686432,583.554321 488.034302,555.272034 478.621307,525.362854 
	C472.424164,505.671661 465.627716,486.182434 457.968750,466.998230 
	C451.331573,450.373352 440.954071,436.949646 425.329102,427.855286 
	C424.646027,427.457764 424.043640,426.921509 423.535767,426.547241 
	C423.713135,425.134735 424.579224,424.857697 425.378601,424.963043 
	C431.112518,425.718628 432.219879,422.859558 432.214569,417.680908 
	C432.201843,405.253296 434.422272,405.269531 419.919006,405.300934 
	C394.592041,405.355774 369.264862,405.330353 343.937836,405.293182 
	C342.000275,405.290344 339.958282,405.809326 337.300873,404.183502 
	C351.593658,386.074127 370.459381,376.671509 392.579620,373.892609 
	C425.141724,369.801941 452.548798,380.766296 476.057648,404.089325 
	C471.787476,406.587891 467.346313,403.892639 463.838562,406.577240 
	C464.139191,409.825195 466.434021,411.944275 468.106476,414.294952 
	C483.752350,436.285156 499.328094,458.328491 515.276733,480.098206 
	C520.372253,487.053558 522.362244,495.103546 525.131775,502.883118 
	C530.659302,518.409729 535.495056,534.192932 543.065308,548.916199 
	C544.268555,551.256409 544.274902,553.710693 544.273315,556.216003 
	C544.260498,576.544250 544.389893,596.873901 544.164795,617.199707 
	C544.111328,622.023254 545.732117,623.690247 550.476929,623.641296 
	C567.421143,623.466492 565.458679,624.932190 565.580688,608.634521 
	C565.637756,601.006531 565.590454,593.377808 565.590454,585.654663 
	C568.448425,585.548645 569.354431,587.650940 570.733765,588.874207 
	C587.569214,603.804199 612.656006,605.387756 628.570190,592.012390 
	C640.441406,582.035034 647.645630,562.230957 635.640625,545.286438 
	C628.432617,535.112793 619.178833,526.977844 610.270691,518.477905 
	C602.673340,511.228729 595.168640,503.905548 588.236938,496.000183 
	C586.182190,493.656830 585.666443,491.817139 587.669434,489.052795 
	C598.323059,474.349213 608.802124,459.519196 619.355713,444.743011 
	C619.920837,443.951813 620.473206,443.042206 622.039734,443.188202 
	C623.085449,460.123932 636.232178,469.075256 646.864685,479.582214 
	C656.107300,488.715729 665.737793,497.438934 673.935974,507.584808 
	C676.257263,510.457581 677.265320,513.457825 677.253601,517.185303 
	C677.154907,548.510559 677.155151,579.836548 677.283020,611.161621 
	C677.299805,615.280090 676.058777,618.463989 673.366577,621.523010 
	C650.937256,647.007874 622.565491,656.159180 588.965698,652.334778 
z"/>
<path fill="#000000" opacity="1.000000" stroke="none" 
	d="
M703.856567,390.007629 
	C724.987610,400.556396 742.406738,415.551849 759.641418,430.796631 
	C775.487427,444.813141 791.201111,459.006989 809.894653,469.298035 
	C819.560303,474.619110 829.608154,478.972198 840.542358,481.007568 
	C841.984131,481.275970 843.372559,481.830719 844.988464,482.313446 
	C844.694824,486.567291 842.622009,490.038269 841.169312,493.660797 
	C836.584778,505.092743 831.611450,516.372986 827.229431,527.879822 
	C825.573669,532.227783 823.746948,533.256287 819.179016,531.892639 
	C798.355530,525.676147 779.418762,515.868896 761.860352,503.173584 
	C740.078003,487.424316 721.348450,468.044067 700.190186,451.560364 
	C698.213684,450.020508 698.080017,447.970764 698.081848,445.740997 
	C698.091125,434.254700 697.878723,422.765045 698.106323,411.283752 
	C698.198425,406.640533 696.500977,404.900574 691.977661,405.302124 
	C689.333923,405.536835 686.651123,405.319397 683.986023,405.327850 
	C677.329529,405.348969 677.172119,405.485962 677.142700,411.942383 
	C677.115356,417.938873 677.161072,423.935699 677.127258,429.932129 
	C677.117065,431.735901 677.482239,433.608643 676.045715,435.976868 
	C661.353882,430.781647 646.454590,424.359467 630.201843,431.769867 
	C630.072388,431.333893 629.942932,430.897888 629.813538,430.461914 
	C635.289917,422.652222 640.766357,414.842499 646.417297,406.783966 
	C642.265320,404.364075 638.346130,405.921478 634.720581,405.279449 
	C624.396729,403.451324 618.096741,407.788544 612.514648,416.597137 
	C601.739136,433.600891 589.657471,449.777527 578.085388,466.274658 
	C577.064392,467.730194 576.371887,469.550446 574.457153,470.227722 
	C572.323608,469.350311 572.475220,467.206238 572.008423,465.580444 
	C559.463074,421.882446 587.462463,380.803040 632.691589,375.532288 
	C658.049744,372.577209 681.133362,379.052673 703.856567,390.007629 
z"/>
<path fill="#000000" opacity="1.000000" stroke="none" 
	d="
M362.540222,536.462708 
	C358.691284,532.852966 354.597137,529.972351 351.800781,525.860962 
	C352.843994,524.138367 354.319244,524.632446 355.545044,524.623291 
	C375.365692,524.474915 395.186768,524.380920 415.007538,524.245667 
	C417.142853,524.231140 418.846527,524.836426 420.218536,526.591675 
	C433.027191,542.978455 440.452576,561.311523 440.200897,582.340027 
	C440.085754,591.959900 436.979065,602.638367 433.021210,607.787170 
	C431.799408,603.247253 428.420990,603.334167 424.809113,603.362854 
	C408.829834,603.489685 392.849274,603.461731 376.869202,603.475403 
	C375.773895,603.476379 374.529572,604.040833 373.296295,602.255798 
	C375.093811,601.425171 376.797699,600.624756 378.512146,599.847717 
	C391.178711,594.107300 395.509552,583.790222 390.755310,570.766602 
	C387.828522,562.749084 382.576477,556.298462 376.778320,550.279663 
	C372.274109,545.604004 367.468781,541.218384 362.540222,536.462708 
z"/>
<path fill="#000000" opacity="1.000000" stroke="none" 
	d="
M359.000122,623.600708 
	C380.059906,623.600037 400.619720,623.600037 422.463867,623.600037 
	C418.616608,628.810669 414.503418,631.848267 410.235992,634.480225 
	C383.918579,650.711426 356.072083,652.103577 327.306519,642.330139 
	C302.872772,634.028503 282.758850,618.718445 263.444702,602.208679 
	C259.396545,598.748352 255.476913,595.137573 251.498520,591.595581 
	C250.240540,590.475647 248.650803,589.299561 250.152481,587.461060 
	C257.118530,578.932739 262.512360,569.421936 267.190063,559.627014 
	C270.561981,559.962952 272.349365,562.154297 274.545807,563.544128 
	C282.982635,568.882812 291.289093,574.430176 299.788635,579.665283 
	C302.397430,581.272095 303.389130,583.108337 303.348602,586.121033 
	C303.207581,596.606995 303.539246,607.104004 303.194000,617.580383 
	C303.029205,622.581604 304.919647,623.761780 309.557678,623.697266 
	C325.869110,623.470398 342.185547,623.604370 359.000122,623.600708 
z"/>
<path fill="#000000" opacity="1.000000" stroke="none" 
	d="
M324.687988,437.019226 
	C324.914093,423.276215 322.724518,425.009705 336.383514,424.883148 
	C350.870636,424.748901 365.359955,424.845093 379.848297,424.840820 
	C381.810394,424.840240 383.772522,424.840729 385.635193,424.840729 
	C386.340179,427.586487 384.264618,427.718933 383.203644,428.409210 
	C370.239410,436.843964 359.547089,457.561310 372.739349,476.393188 
	C378.322449,484.363007 384.993469,491.286926 392.086945,497.864960 
	C393.768188,499.424011 395.887177,500.612671 396.694153,503.043152 
	C395.416718,505.058075 393.389282,504.234772 391.726898,504.241089 
	C373.741577,504.309326 355.754852,504.181702 337.771271,504.370575 
	C333.916443,504.411041 331.660919,503.021912 329.756042,499.814392 
	C326.280853,493.962830 324.330719,488.014313 324.555878,480.975616 
	C325.018860,466.502167 324.690857,452.003387 324.687988,437.019226 
z"/>
<path fill="#000000" opacity="1.000000" stroke="none" 
	d="
M177.242188,528.785522 
	C167.822372,523.186401 158.436157,518.756226 147.437454,519.037781 
	C140.040039,519.227173 133.394043,521.476135 127.241295,525.425293 
	C122.337929,528.572571 117.520302,531.859375 112.542564,534.883362 
	C104.749100,539.617798 96.172256,540.169006 87.423187,538.890808 
	C82.757484,538.209167 79.628685,532.839111 80.936417,528.455505 
	C81.551163,526.394836 83.164833,526.642334 84.584373,526.992920 
	C94.667603,529.482971 102.795647,525.811096 110.174309,519.258301 
	C119.337227,511.120941 129.069656,503.932281 141.549973,501.640961 
	C156.436874,498.907837 170.654510,501.351776 184.524261,506.930664 
	C201.479858,513.750793 216.832550,523.394714 231.829544,533.658447 
	C241.585480,540.335266 251.243729,547.154968 260.927979,553.936035 
	C261.833527,554.570129 263.009583,555.076111 262.971863,556.864868 
	C258.302826,557.837341 253.529144,557.277954 248.816986,557.260498 
	C245.790512,557.249268 243.861481,558.285828 242.311554,560.859558 
	C240.254532,564.275208 237.775986,567.434082 235.628586,570.799072 
	C233.645493,573.906433 231.882172,573.637024 229.306824,571.270264 
	C220.602661,563.270996 211.793549,555.380188 202.857895,547.640320 
	C194.920792,540.765320 186.526108,534.466980 177.242188,528.785522 
z"/>
<path fill="#000000" opacity="1.000000" stroke="none" 
	d="
M861.768188,494.879211 
	C862.720032,492.515289 863.442017,490.461578 864.412781,488.533051 
	C866.100769,485.179810 866.039062,480.770599 869.579163,478.555725 
	C876.371948,474.305725 883.404602,470.533295 891.629944,469.759705 
	C894.816528,469.460022 895.477722,471.746521 896.332031,473.925323 
	C903.987244,493.450043 911.644409,512.974060 919.282715,532.505371 
	C920.602051,535.878845 921.835022,539.286072 923.022339,542.449646 
	C921.383667,544.654297 919.412109,544.108398 917.667419,544.113525 
	C902.343506,544.158691 887.019287,544.109985 871.695435,544.170227 
	C865.481018,544.194641 860.312622,540.672729 854.487854,539.347778 
	C845.154602,537.224670 845.164185,537.075317 848.635559,528.226929 
	C852.951965,517.224670 857.310242,506.238800 861.768188,494.879211 
z"/>
<path fill="#000000" opacity="1.000000" stroke="none" 
	d="
M966.139038,530.291992 
	C959.919739,533.192810 954.022461,535.905396 948.167114,538.705872 
	C945.872986,539.803223 944.215332,539.932068 943.060669,537.089600 
	C934.668701,516.431152 926.186890,495.809174 917.760620,475.164581 
	C917.526062,474.589844 917.596252,473.890717 917.531677,473.314606 
	C918.932434,472.235321 920.210327,472.818115 921.462585,473.180847 
	C938.655457,478.160461 954.691040,485.883881 970.541931,494.016571 
	C972.736450,495.142487 974.753174,496.721649 976.624878,498.351959 
	C985.433044,506.024261 985.210632,516.539856 976.185059,524.048584 
	C973.219727,526.515442 969.909058,528.420532 966.139038,530.291992 
z"/>
<path fill="#000000" opacity="1.000000" stroke="none" 
	d="
M47.641655,516.327515 
	C45.735008,513.731689 40.847145,512.104370 43.659069,508.680084 
	C46.465351,505.262726 49.105465,509.537079 51.634232,510.904907 
	C56.635998,513.610413 60.185928,517.157227 57.904263,524.096985 
	C53.826694,522.523682 51.119095,519.178833 47.641655,516.327515 
z"/>
<path fill="#000000" opacity="1.000000" stroke="none" 
	d="
M333.843872,603.377869 
	C332.555115,603.379333 331.730194,603.385681 330.905396,603.378052 
	C324.370331,603.317871 324.002197,602.837708 325.451904,595.525208 
	C331.344086,597.816589 337.144775,600.072327 343.968140,602.725830 
	C340.068634,603.981506 337.135986,603.042175 333.843872,603.377869 
z"/>
</svg>